<?xml version="1.0" encoding="UTF-8" standalone="no"?>
<!DOCTYPE svg PUBLIC "-//W3C//DTD SVG 1.1//EN"
 "http://www.w3.org/Graphics/SVG/1.1/DTD/svg11.dtd">
<!-- Generated by graphviz version 9.0.0 (20230911.1827)
 -->
<!-- Title: UML_Class_diagram Pages: 1 -->
<svg width="478pt" height="245pt"
 viewBox="0.00 0.00 478.00 245.00" xmlns="http://www.w3.org/2000/svg" xmlns:xlink="http://www.w3.org/1999/xlink">
<g id="graph0" class="graph" transform="scale(1 1) rotate(0) translate(4 241)">
<title>UML_Class_diagram</title>
<polygon fill="white" stroke="none" points="-4,4 -4,-241 474,-241 474,4 -4,4"/>
<!-- Shape -->
<g id="node1" class="node">
<title>Shape</title>
<polygon fill="#f2f2f2" stroke="none" points="248,-237 190,-237 190,-192 248,-192 248,-237"/>
<polygon fill="none" stroke="black" points="190,-212 190,-237 248,-237 248,-212 190,-212"/>
<text text-anchor="start" x="195" y="-219.7" font-family="Helvetica,Arial,sans-serif" font-size="14.00"> </text>
<text text-anchor="start" x="198.75" y="-219.7" font-family="Helvetica,Arial,sans-serif" font-weight="bold" font-size="14.00">Shape</text>
<text text-anchor="start" x="239.25" y="-219.7" font-family="Helvetica,Arial,sans-serif" font-size="14.00"> </text>
<polygon fill="none" stroke="black" points="190,-202 190,-212 248,-212 248,-202 190,-202"/>
<polygon fill="none" stroke="black" points="190,-192 190,-202 248,-202 248,-192 190,-192"/>
</g>
<!-- TwoDiagramShape -->
<g id="node2" class="node">
<title>TwoDiagramShape</title>
<polygon fill="#f2f2f2" stroke="none" points="206.12,-146.5 33.88,-146.5 33.88,-82.5 206.12,-82.5 206.12,-146.5"/>
<polygon fill="none" stroke="black" points="33.88,-121.5 33.88,-146.5 206.12,-146.5 206.12,-121.5 33.88,-121.5"/>
<text text-anchor="start" x="55.12" y="-129.2" font-family="Helvetica,Arial,sans-serif" font-size="14.00"> </text>
<text text-anchor="start" x="58.88" y="-129.2" font-family="Helvetica,Arial,sans-serif" font-weight="bold" font-size="14.00">TwoDiagramShape</text>
<text text-anchor="start" x="181.12" y="-129.2" font-family="Helvetica,Arial,sans-serif" font-size="14.00"> </text>
<polygon fill="none" stroke="black" points="33.88,-111.5 33.88,-121.5 206.12,-121.5 206.12,-111.5 33.88,-111.5"/>
<polygon fill="none" stroke="black" points="33.88,-82.5 33.88,-111.5 206.12,-111.5 206.12,-82.5 33.88,-82.5"/>
<text text-anchor="start" x="40.88" y="-91.2" font-family="Helvetica,Arial,sans-serif" font-size="14.00">+ get_area() const: double</text>
</g>
<!-- Shape&#45;&gt;TwoDiagramShape -->
<g id="edge1" class="edge">
<title>Shape&#45;&gt;TwoDiagramShape</title>
<path fill="none" stroke="black" d="M189.51,-184.31C177.44,-172.36 163.46,-158.52 151.21,-146.4"/>
<polygon fill="none" stroke="black" points="186.87,-186.62 196.44,-191.17 191.8,-181.65 186.87,-186.62"/>
</g>
<!-- ThreeDiagramShape -->
<g id="node6" class="node">
<title>ThreeDiagramShape</title>
<polygon fill="#f2f2f2" stroke="none" points="422.75,-156 233.25,-156 233.25,-73 422.75,-73 422.75,-156"/>
<polygon fill="none" stroke="black" points="233.25,-131 233.25,-156 422.75,-156 422.75,-131 233.25,-131"/>
<text text-anchor="start" x="258.25" y="-138.7" font-family="Helvetica,Arial,sans-serif" font-size="14.00"> </text>
<text text-anchor="start" x="262" y="-138.7" font-family="Helvetica,Arial,sans-serif" font-weight="bold" font-size="14.00">ThreeDiagramShape</text>
<text text-anchor="start" x="394" y="-138.7" font-family="Helvetica,Arial,sans-serif" font-size="14.00"> </text>
<polygon fill="none" stroke="black" points="233.25,-121 233.25,-131 422.75,-131 422.75,-121 233.25,-121"/>
<polygon fill="none" stroke="black" points="233.25,-73 233.25,-121 422.75,-121 422.75,-73 233.25,-73"/>
<text text-anchor="start" x="240.25" y="-100.7" font-family="Helvetica,Arial,sans-serif" font-size="14.00">+ get_area() const: double</text>
<text text-anchor="start" x="240.25" y="-81.7" font-family="Helvetica,Arial,sans-serif" font-size="14.00">+ get_volume() const: double</text>
</g>
<!-- Shape&#45;&gt;ThreeDiagramShape -->
<g id="edge2" class="edge">
<title>Shape&#45;&gt;ThreeDiagramShape</title>
<path fill="none" stroke="black" d="M251.14,-184.6C261.22,-175.54 272.53,-165.38 283.3,-155.69"/>
<polygon fill="none" stroke="black" points="248.87,-181.93 243.78,-191.22 253.55,-187.14 248.87,-181.93"/>
</g>
<!-- Circle -->
<g id="node3" class="node">
<title>Circle</title>
<polygon fill="#f2f2f2" stroke="black" points="0,-0.5 0,-36.5 54,-36.5 54,-0.5 0,-0.5"/>
<text text-anchor="middle" x="26.75" y="-12.7" font-family="Helvetica,Arial,sans-serif" font-size="14.00">Circle</text>
</g>
<!-- TwoDiagramShape&#45;&gt;Circle -->
<g id="edge3" class="edge">
<title>TwoDiagramShape&#45;&gt;Circle</title>
<path fill="none" stroke="black" d="M81.6,-74.69C68.6,-61.55 54.72,-47.52 44.21,-36.9"/>
<polygon fill="none" stroke="black" points="78.96,-77 88.48,-81.64 83.94,-72.07 78.96,-77"/>
</g>
<!-- Square -->
<g id="node4" class="node">
<title>Square</title>
<polygon fill="#f2f2f2" stroke="black" points="72.25,-0.5 72.25,-36.5 131.75,-36.5 131.75,-0.5 72.25,-0.5"/>
<text text-anchor="middle" x="102" y="-12.7" font-family="Helvetica,Arial,sans-serif" font-size="14.00">Square</text>
</g>
<!-- TwoDiagramShape&#45;&gt;Square -->
<g id="edge4" class="edge">
<title>TwoDiagramShape&#45;&gt;Square</title>
<path fill="none" stroke="black" d="M112,-71.7C109.65,-59.45 107.21,-46.72 105.33,-36.9"/>
<polygon fill="none" stroke="black" points="108.5,-72.07 113.82,-81.23 115.38,-70.75 108.5,-72.07"/>
</g>
<!-- Triangle -->
<g id="node5" class="node">
<title>Triangle</title>
<polygon fill="#f2f2f2" stroke="black" points="149.62,-0.5 149.62,-36.5 214.38,-36.5 214.38,-0.5 149.62,-0.5"/>
<text text-anchor="middle" x="182" y="-12.7" font-family="Helvetica,Arial,sans-serif" font-size="14.00">Triangle</text>
</g>
<!-- TwoDiagramShape&#45;&gt;Triangle -->
<g id="edge5" class="edge">
<title>TwoDiagramShape&#45;&gt;Triangle</title>
<path fill="none" stroke="black" d="M146.58,-73.2C154.96,-60.49 163.78,-47.12 170.52,-36.9"/>
<polygon fill="none" stroke="black" points="143.72,-71.18 141.13,-81.46 149.56,-75.04 143.72,-71.18"/>
</g>
<!-- Sphere -->
<g id="node7" class="node">
<title>Sphere</title>
<polygon fill="#f2f2f2" stroke="black" points="232.25,-0.5 232.25,-36.5 291.75,-36.5 291.75,-0.5 232.25,-0.5"/>
<text text-anchor="middle" x="262" y="-12.7" font-family="Helvetica,Arial,sans-serif" font-size="14.00">Sphere</text>
</g>
<!-- ThreeDiagramShape&#45;&gt;Sphere -->
<g id="edge6" class="edge">
<title>ThreeDiagramShape&#45;&gt;Sphere</title>
<path fill="none" stroke="black" d="M293.09,-63.77C286.26,-54.05 279.54,-44.48 274.11,-36.74"/>
<polygon fill="none" stroke="black" points="290.15,-65.68 298.76,-71.85 295.88,-61.66 290.15,-65.68"/>
</g>
<!-- Cube -->
<g id="node8" class="node">
<title>Cube</title>
<polygon fill="#f2f2f2" stroke="black" points="310,-0.5 310,-36.5 364,-36.5 364,-0.5 310,-0.5"/>
<text text-anchor="middle" x="336.62" y="-12.7" font-family="Helvetica,Arial,sans-serif" font-size="14.00">Cube</text>
</g>
<!-- ThreeDiagramShape&#45;&gt;Cube -->
<g id="edge7" class="edge">
<title>ThreeDiagramShape&#45;&gt;Cube</title>
<path fill="none" stroke="black" d="M332.96,-61.67C333.82,-52.68 334.66,-43.92 335.35,-36.74"/>
<polygon fill="none" stroke="black" points="329.48,-61.3 332.01,-71.58 336.45,-61.96 329.48,-61.3"/>
</g>
<!-- Tetrahedron -->
<g id="node9" class="node">
<title>Tetrahedron</title>
<polygon fill="#f2f2f2" stroke="black" points="382,-0.5 382,-36.5 470,-36.5 470,-0.5 382,-0.5"/>
<text text-anchor="middle" x="426" y="-12.7" font-family="Helvetica,Arial,sans-serif" font-size="14.00">Tetrahedron</text>
</g>
<!-- ThreeDiagramShape&#45;&gt;Tetrahedron -->
<g id="edge8" class="edge">
<title>ThreeDiagramShape&#45;&gt;Tetrahedron</title>
<path fill="none" stroke="black" d="M378.21,-65.34C388.8,-55.18 399.32,-45.09 407.78,-36.98"/>
<polygon fill="none" stroke="black" points="376.02,-62.59 371.22,-72.04 380.86,-67.65 376.02,-62.59"/>
</g>
</g>
</svg>
